<svg width="68" height="98" viewBox="0 0 68 98" fill="none" xmlns="http://www.w3.org/2000/svg">
<g filter="url(#filter0_d_2_11)">
<path d="M63.9748 85L55.4748 95.5L31.2248 74.25L6.97477 53C3.21055 47.1421 2.81128 43.8579 6.97477 38L55.4748 0L63.9748 11L28.4748 38C22.4611 43.1792 22.1401 46.4271 28.4748 53L46.2248 69L63.9748 85Z" fill="#C4C4C4"/>
<path d="M28.1148 53.347L28.1269 53.3596L28.14 53.3714L45.89 69.3714L63.2878 85.0539L55.4133 94.7813L31.5543 73.874L7.35744 52.6705C5.50954 49.7858 4.54817 47.6144 4.50176 45.4891C4.45562 43.3762 5.3134 41.2136 7.34048 38.3487L55.3869 0.704033L63.2711 10.907L28.1721 37.602L28.16 37.6112L28.1485 37.6211C25.1386 40.2134 23.3885 42.449 23.3442 44.9686C23.3002 47.4725 24.9473 50.0604 28.1148 53.347Z" stroke="black"/>
</g>
<defs>
<filter id="filter0_d_2_11" x="-7.62939e-06" y="0" width="67.9748" height="103.5" filterUnits="userSpaceOnUse" color-interpolation-filters="sRGB">
<feFlood flood-opacity="0" result="BackgroundImageFix"/>
<feColorMatrix in="SourceAlpha" type="matrix" values="0 0 0 0 0 0 0 0 0 0 0 0 0 0 0 0 0 0 127 0" result="hardAlpha"/>
<feOffset dy="4"/>
<feGaussianBlur stdDeviation="2"/>
<feComposite in2="hardAlpha" operator="out"/>
<feColorMatrix type="matrix" values="0 0 0 0 0 0 0 0 0 0 0 0 0 0 0 0 0 0 0.25 0"/>
<feBlend mode="normal" in2="BackgroundImageFix" result="effect1_dropShadow_2_11"/>
<feBlend mode="normal" in="SourceGraphic" in2="effect1_dropShadow_2_11" result="shape"/>
</filter>
</defs>
</svg>
